<mxfile host="app.diagrams.net" modified="2021-07-08T21:40:02.441Z" agent="5.0 (X11; Linux x86_64) AppleWebKit/537.36 (KHTML, like Gecko) Chrome/91.0.4472.114 Safari/537.36" etag="2X9oWqkVDueIdq7AGfQp" version="14.8.5" type="github">
  <diagram name="Page-1" id="edf60f1a-56cd-e834-aa8a-f176f3a09ee4">
    <mxGraphModel dx="998" dy="546" grid="1" gridSize="10" guides="1" tooltips="1" connect="1" arrows="1" fold="1" page="1" pageScale="1" pageWidth="3300" pageHeight="2339" background="none" math="0" shadow="0">
      <root>
        <mxCell id="0" />
        <mxCell id="1" parent="0" />
        <mxCell id="NM9_m17Mz0t7V7ZbXo9f-5" value="" style="edgeStyle=orthogonalEdgeStyle;rounded=0;orthogonalLoop=1;jettySize=auto;html=1;" parent="1" source="60e70716793133e9-4" target="NM9_m17Mz0t7V7ZbXo9f-4" edge="1">
          <mxGeometry relative="1" as="geometry" />
        </mxCell>
        <mxCell id="60e70716793133e9-4" value="&lt;div style=&quot;text-align: left&quot;&gt;&lt;span&gt;RiseGrid.Designer.cs L353 Click+=this.handleContextMenuOptions()&lt;/span&gt;&lt;/div&gt;&lt;div style=&quot;text-align: left&quot;&gt;&lt;span&gt;AnnotationAction.cs L141 handleContextMenuOptions(sender, eventArgs)&lt;/span&gt;&lt;/div&gt;&lt;div style=&quot;text-align: left&quot;&gt;&lt;span&gt;AnnotationActions.cs L562: handleEditSNTicket(Selected.Rows[0]&lt;/span&gt;&lt;/div&gt;&lt;div style=&quot;text-align: left&quot;&gt;&lt;span&gt;RiseGrd.cs L4243: handleEditSNTicket(riseRow)&lt;/span&gt;&lt;/div&gt;" style="rounded=0;whiteSpace=wrap;html=1;shadow=1;labelBackgroundColor=none;strokeWidth=1;fontFamily=Verdana;fontSize=8;align=center;" parent="1" vertex="1">
          <mxGeometry x="120" y="70" width="480" height="60" as="geometry" />
        </mxCell>
        <mxCell id="NM9_m17Mz0t7V7ZbXo9f-2" value="Update Ticket" style="text;html=1;strokeColor=none;fillColor=none;align=center;verticalAlign=middle;whiteSpace=wrap;rounded=0;" parent="1" vertex="1">
          <mxGeometry x="190" y="40" width="160" height="20" as="geometry" />
        </mxCell>
        <mxCell id="NM9_m17Mz0t7V7ZbXo9f-7" value="" style="edgeStyle=orthogonalEdgeStyle;rounded=0;orthogonalLoop=1;jettySize=auto;html=1;" parent="1" source="NM9_m17Mz0t7V7ZbXo9f-4" target="NM9_m17Mz0t7V7ZbXo9f-6" edge="1">
          <mxGeometry relative="1" as="geometry" />
        </mxCell>
        <mxCell id="NM9_m17Mz0t7V7ZbXo9f-11" value="" style="edgeStyle=orthogonalEdgeStyle;rounded=0;orthogonalLoop=1;jettySize=auto;html=1;" parent="1" source="NM9_m17Mz0t7V7ZbXo9f-4" target="NM9_m17Mz0t7V7ZbXo9f-10" edge="1">
          <mxGeometry relative="1" as="geometry" />
        </mxCell>
        <mxCell id="NM9_m17Mz0t7V7ZbXo9f-4" value="RiseGrid.cs L4243 -&amp;gt;&lt;br&gt;RiseGrid.csL4250: CreateSNTicket.cs&amp;nbsp; dlg=displaySNTicket(ticketNumber, dominion, rise_type)" style="whiteSpace=wrap;html=1;rounded=0;shadow=1;fontFamily=Verdana;fontSize=8;strokeWidth=1;align=left;" parent="1" vertex="1">
          <mxGeometry x="120" y="200" width="480" height="80" as="geometry" />
        </mxCell>
        <mxCell id="NM9_m17Mz0t7V7ZbXo9f-9" value="" style="edgeStyle=orthogonalEdgeStyle;rounded=0;orthogonalLoop=1;jettySize=auto;html=1;" parent="1" source="NM9_m17Mz0t7V7ZbXo9f-6" target="NM9_m17Mz0t7V7ZbXo9f-8" edge="1">
          <mxGeometry relative="1" as="geometry" />
        </mxCell>
        <mxCell id="NM9_m17Mz0t7V7ZbXo9f-6" value="dialog.OK?" style="rhombus;whiteSpace=wrap;html=1;rounded=0;shadow=1;fontFamily=Verdana;fontSize=8;align=center;strokeWidth=1;" parent="1" vertex="1">
          <mxGeometry x="320" y="321" width="80" height="80" as="geometry" />
        </mxCell>
        <mxCell id="NM9_m17Mz0t7V7ZbXo9f-8" value="RiseGrid.cs L4256: sh.updateSNTicket(&lt;br&gt;&lt;blockquote style=&quot;margin: 0 0 0 40px ; border: none ; padding: 0px&quot;&gt;ticketNumber,&lt;br&gt; briefDes,&lt;br&gt; description,&lt;br&gt; assignedGroup,&lt;br&gt; &quot;contact&quot;,&lt;br&gt; assignedTo,&lt;br&gt; priority,&lt;br&gt; affectedItem,&lt;br&gt; symptomCode,&lt;br&gt; resolutionCode,&lt;br&gt; effortAssignedTo,&lt;br&gt; timeworked,&lt;br&gt; effortType,&lt;br&gt; worknotes,&lt;br&gt; &quot;doc_link&quot;,&lt;br&gt; restorationDesc,&lt;br&gt; closeTicket,&lt;br&gt; EffortAssignGroup,&lt;br&gt; reassignReason,&lt;br&gt; closeWithAssistance&lt;/blockquote&gt;&lt;blockquote style=&quot;margin: 0 0 0 40px ; border: none ; padding: 0px&quot;&gt;)&lt;/blockquote&gt;" style="rounded=0;whiteSpace=wrap;html=1;shadow=1;fontFamily=Verdana;fontSize=8;align=left;strokeWidth=1;" parent="1" vertex="1">
          <mxGeometry x="120" y="430" width="480" height="210" as="geometry" />
        </mxCell>
        <mxCell id="NM9_m17Mz0t7V7ZbXo9f-13" value="" style="edgeStyle=orthogonalEdgeStyle;rounded=0;orthogonalLoop=1;jettySize=auto;html=1;" parent="1" source="NM9_m17Mz0t7V7ZbXo9f-10" target="NM9_m17Mz0t7V7ZbXo9f-12" edge="1">
          <mxGeometry relative="1" as="geometry" />
        </mxCell>
        <mxCell id="NM9_m17Mz0t7V7ZbXo9f-10" value="RiseGrid.cs L4151&lt;br&gt;displaySNticket()" style="triangle;whiteSpace=wrap;html=1;rounded=0;shadow=1;fontFamily=Verdana;fontSize=8;align=left;strokeWidth=1;" parent="1" vertex="1">
          <mxGeometry x="710" y="180" width="130" height="120" as="geometry" />
        </mxCell>
        <mxCell id="NM9_m17Mz0t7V7ZbXo9f-12" value="sh.getRTIMIncident(ticketNumber) -&amp;gt;" style="whiteSpace=wrap;html=1;rounded=0;shadow=1;fontFamily=Verdana;fontSize=8;align=left;strokeWidth=1;" parent="1" vertex="1">
          <mxGeometry x="890" y="210" width="210" height="60" as="geometry" />
        </mxCell>
        <mxCell id="jK4Kh7tczV0ZXOBsc96l-1" value="" style="edgeStyle=orthogonalEdgeStyle;rounded=0;orthogonalLoop=1;jettySize=auto;html=1;" edge="1" parent="1" source="jK4Kh7tczV0ZXOBsc96l-2" target="jK4Kh7tczV0ZXOBsc96l-6">
          <mxGeometry relative="1" as="geometry" />
        </mxCell>
        <mxCell id="jK4Kh7tczV0ZXOBsc96l-2" value="&lt;div style=&quot;text-align: left&quot;&gt;&lt;span&gt;RiseGrid.Designer.cs L392 Click+=this.handleContextMenuOptions()&lt;/span&gt;&lt;/div&gt;&lt;div style=&quot;text-align: left&quot;&gt;&lt;span&gt;AnnotationAction.cs L141 handleContextMenuOptions(sender, eventArgs)&lt;/span&gt;&lt;/div&gt;&lt;div style=&quot;text-align: left&quot;&gt;&lt;span&gt;AnnotationActions.cs L514: extract RtimdID, domioion, rise_type)&amp;nbsp;&lt;/span&gt;&lt;/div&gt;&lt;div style=&quot;text-align: left&quot;&gt;&lt;span&gt;&lt;span style=&quot;white-space: pre&quot;&gt;	&lt;/span&gt;handleMenuUpdateSNEI(RtimdID, dominion, riset_type)&lt;/span&gt;&lt;/div&gt;&lt;div style=&quot;text-align: left&quot;&gt;&lt;br&gt;&lt;/div&gt;" style="rounded=0;whiteSpace=wrap;html=1;shadow=1;labelBackgroundColor=none;strokeWidth=1;fontFamily=Verdana;fontSize=8;align=center;" vertex="1" parent="1">
          <mxGeometry x="1410" y="80" width="480" height="60" as="geometry" />
        </mxCell>
        <mxCell id="jK4Kh7tczV0ZXOBsc96l-3" value="Update Ticket - EI" style="text;html=1;strokeColor=none;fillColor=none;align=center;verticalAlign=middle;whiteSpace=wrap;rounded=0;" vertex="1" parent="1">
          <mxGeometry x="1480" y="50" width="160" height="20" as="geometry" />
        </mxCell>
        <mxCell id="jK4Kh7tczV0ZXOBsc96l-4" value="" style="edgeStyle=orthogonalEdgeStyle;rounded=0;orthogonalLoop=1;jettySize=auto;html=1;" edge="1" parent="1" source="jK4Kh7tczV0ZXOBsc96l-6" target="jK4Kh7tczV0ZXOBsc96l-8">
          <mxGeometry relative="1" as="geometry" />
        </mxCell>
        <mxCell id="jK4Kh7tczV0ZXOBsc96l-5" value="" style="edgeStyle=orthogonalEdgeStyle;rounded=0;orthogonalLoop=1;jettySize=auto;html=1;" edge="1" parent="1" source="jK4Kh7tczV0ZXOBsc96l-6" target="jK4Kh7tczV0ZXOBsc96l-11">
          <mxGeometry relative="1" as="geometry" />
        </mxCell>
        <mxCell id="jK4Kh7tczV0ZXOBsc96l-6" value="&lt;div&gt;AnnotationActions.cs L766: handleMenuUpdateSNEI(RtimdID, dominion, riset_type){&lt;br&gt;&lt;/div&gt;&lt;blockquote style=&quot;margin: 0 0 0 40px ; border: none ; padding: 0px&quot;&gt;&lt;div&gt;getRTIMIncidentEI(RtimdID)&lt;/div&gt;&lt;div&gt;update from ticket info&lt;/div&gt;&lt;div&gt;open dialog ServiceNowEI(&lt;/div&gt;&lt;/blockquote&gt;&lt;blockquote style=&quot;margin: 0 0 0 40px ; border: none ; padding: 0px&quot;&gt;&lt;blockquote style=&quot;margin: 0 0 0 40px ; border: none ; padding: 0px&quot;&gt;&lt;div&gt;type,&lt;/div&gt;&lt;/blockquote&gt;&lt;blockquote style=&quot;margin: 0 0 0 40px ; border: none ; padding: 0px&quot;&gt;&lt;div&gt;dominion,&lt;/div&gt;&lt;/blockquote&gt;&lt;blockquote style=&quot;margin: 0 0 0 40px ; border: none ; padding: 0px&quot;&gt;&lt;div&gt;ticketTitle,&lt;/div&gt;&lt;/blockquote&gt;&lt;/blockquote&gt;&lt;blockquote style=&quot;margin: 0 0 0 40px ; border: none ; padding: 0px&quot;&gt;&lt;blockquote style=&quot;margin: 0 0 0 40px ; border: none ; padding: 0px&quot;&gt;&lt;div&gt;ticketDescription,&lt;/div&gt;&lt;/blockquote&gt;&lt;blockquote style=&quot;margin: 0 0 0 40px ; border: none ; padding: 0px&quot;&gt;&lt;div&gt;assignment_group,&lt;/div&gt;&lt;/blockquote&gt;&lt;blockquote style=&quot;margin: 0 0 0 40px ; border: none ; padding: 0px&quot;&gt;&lt;div&gt;assignee,&lt;/div&gt;&lt;/blockquote&gt;&lt;blockquote style=&quot;margin: 0 0 0 40px ; border: none ; padding: 0px&quot;&gt;&lt;div&gt;CI,&lt;/div&gt;&lt;/blockquote&gt;&lt;blockquote style=&quot;margin: 0 0 0 40px ; border: none ; padding: 0px&quot;&gt;&lt;div&gt;symptom_code,&lt;/div&gt;&lt;/blockquote&gt;&lt;blockquote style=&quot;margin: 0 0 0 40px ; border: none ; padding: 0px&quot;&gt;&lt;div&gt;fixlog,&lt;/div&gt;&lt;/blockquote&gt;&lt;blockquote style=&quot;margin: 0 0 0 40px ; border: none ; padding: 0px&quot;&gt;&lt;div&gt;severity,&lt;/div&gt;&lt;/blockquote&gt;&lt;blockquote style=&quot;margin: 0 0 0 40px ; border: none ; padding: 0px&quot;&gt;&lt;div&gt;resolution_code,&lt;/div&gt;&lt;/blockquote&gt;&lt;blockquote style=&quot;margin: 0 0 0 40px ; border: none ; padding: 0px&quot;&gt;&lt;div&gt;&quot;&quot;,&lt;/div&gt;&lt;/blockquote&gt;&lt;blockquote style=&quot;margin: 0 0 0 40px ; border: none ; padding: 0px&quot;&gt;&lt;div&gt;RtimdID,&lt;/div&gt;&lt;/blockquote&gt;&lt;blockquote style=&quot;margin: 0 0 0 40px ; border: none ; padding: 0px&quot;&gt;&lt;div&gt;restoration,&lt;/div&gt;&lt;/blockquote&gt;&lt;blockquote style=&quot;margin: 0 0 0 40px ; border: none ; padding: 0px&quot;&gt;&lt;div&gt;currentUser,&lt;/div&gt;&lt;/blockquote&gt;&lt;blockquote style=&quot;margin: 0 0 0 40px ; border: none ; padding: 0px&quot;&gt;&lt;div&gt;sh,&lt;/div&gt;&lt;/blockquote&gt;&lt;blockquote style=&quot;margin: 0 0 0 40px ; border: none ; padding: 0px&quot;&gt;&lt;div&gt;default_work_type,&lt;/div&gt;&lt;/blockquote&gt;&lt;blockquote style=&quot;margin: 0 0 0 40px ; border: none ; padding: 0px&quot;&gt;&lt;div&gt;reassignReason,&lt;/div&gt;&lt;/blockquote&gt;&lt;blockquote style=&quot;margin: 0 0 0 40px ; border: none ; padding: 0px&quot;&gt;&lt;div&gt;closeWithAssistace,&lt;/div&gt;&lt;/blockquote&gt;&lt;blockquote style=&quot;margin: 0 0 0 40px ; border: none ; padding: 0px&quot;&gt;&lt;div&gt;adHoceCiName,&lt;/div&gt;&lt;/blockquote&gt;&lt;blockquote style=&quot;margin: 0 0 0 40px ; border: none ; padding: 0px&quot;&gt;&lt;div&gt;actualSeverity,&lt;/div&gt;&lt;/blockquote&gt;&lt;/blockquote&gt;&lt;blockquote style=&quot;margin: 0 0 0 40px ; border: none ; padding: 0px&quot;&gt;&lt;div&gt;)&lt;/div&gt;&lt;/blockquote&gt;&lt;div&gt;}&lt;/div&gt;" style="whiteSpace=wrap;html=1;rounded=0;shadow=1;fontFamily=Verdana;fontSize=8;strokeWidth=1;align=left;" vertex="1" parent="1">
          <mxGeometry x="1410" y="210" width="480" height="260" as="geometry" />
        </mxCell>
        <mxCell id="jK4Kh7tczV0ZXOBsc96l-7" value="" style="edgeStyle=orthogonalEdgeStyle;rounded=0;orthogonalLoop=1;jettySize=auto;html=1;" edge="1" parent="1" source="jK4Kh7tczV0ZXOBsc96l-8" target="jK4Kh7tczV0ZXOBsc96l-9">
          <mxGeometry relative="1" as="geometry" />
        </mxCell>
        <mxCell id="jK4Kh7tczV0ZXOBsc96l-8" value="dialog.OK?" style="rhombus;whiteSpace=wrap;html=1;rounded=0;shadow=1;fontFamily=Verdana;fontSize=8;align=center;strokeWidth=1;" vertex="1" parent="1">
          <mxGeometry x="1610" y="481" width="80" height="80" as="geometry" />
        </mxCell>
        <mxCell id="jK4Kh7tczV0ZXOBsc96l-9" value="AnnotationActions.cs L819: sh.updateSNTicketEI(&lt;br&gt;&lt;blockquote style=&quot;margin: 0 0 0 40px ; border: none ; padding: 0px&quot;&gt;ticketNumber,&lt;br&gt; briefDes,&lt;br&gt; description,&lt;br&gt; assignedGroup,&lt;br&gt; &quot;contact&quot;,&lt;br&gt; assignedTo,&lt;br&gt; priority,&lt;br&gt; affectedItem,&lt;br&gt; symptomCode,&lt;br&gt; resolutionCode,&lt;br&gt; effortAssignedTo,&lt;br&gt; timeworked,&lt;br&gt; effortType,&lt;br&gt; worknotes,&lt;br&gt; &quot;doc_link&quot;,&lt;br&gt; restorationDesc,&lt;br&gt; closeTicket,&lt;br&gt; EffortAssignGroup,&lt;br&gt; reassignReason,&lt;br&gt; closeWithAssistance,&lt;/blockquote&gt;&lt;blockquote style=&quot;margin: 0 0 0 40px ; border: none ; padding: 0px&quot;&gt;&lt;font color=&quot;#99004d&quot;&gt;&lt;u&gt;actualSeverity,&lt;/u&gt;&lt;/font&gt;&lt;/blockquote&gt;&lt;blockquote style=&quot;margin: 0 0 0 40px ; border: none ; padding: 0px&quot;&gt;&lt;font color=&quot;#99004d&quot;&gt;&lt;u&gt;EditAdHocCI,&lt;/u&gt;&lt;/font&gt;&lt;/blockquote&gt;&lt;blockquote style=&quot;margin: 0 0 0 40px ; border: none ; padding: 0px&quot;&gt;)&lt;/blockquote&gt;" style="rounded=0;whiteSpace=wrap;html=1;shadow=1;fontFamily=Verdana;fontSize=8;align=left;strokeWidth=1;" vertex="1" parent="1">
          <mxGeometry x="1410" y="579" width="480" height="240" as="geometry" />
        </mxCell>
        <mxCell id="jK4Kh7tczV0ZXOBsc96l-10" value="" style="edgeStyle=orthogonalEdgeStyle;rounded=0;orthogonalLoop=1;jettySize=auto;html=1;" edge="1" parent="1" source="jK4Kh7tczV0ZXOBsc96l-11">
          <mxGeometry relative="1" as="geometry">
            <mxPoint x="2190" y="340" as="targetPoint" />
          </mxGeometry>
        </mxCell>
        <mxCell id="jK4Kh7tczV0ZXOBsc96l-11" value="RiseGrid.cs L4151&lt;br&gt;displaySNticket()" style="triangle;whiteSpace=wrap;html=1;rounded=0;shadow=1;fontFamily=Verdana;fontSize=8;align=left;strokeWidth=1;" vertex="1" parent="1">
          <mxGeometry x="2010" y="280" width="130" height="120" as="geometry" />
        </mxCell>
        <mxCell id="jK4Kh7tczV0ZXOBsc96l-12" value="sh.getRTIMIncident(ticketNumber) -&amp;gt;" style="whiteSpace=wrap;html=1;rounded=0;shadow=1;fontFamily=Verdana;fontSize=8;align=left;strokeWidth=1;" vertex="1" parent="1">
          <mxGeometry x="2190" y="310" width="210" height="60" as="geometry" />
        </mxCell>
      </root>
    </mxGraphModel>
  </diagram>
</mxfile>
